<svg width="135" height="30" viewBox="0 0 135 30" fill="none" xmlns="http://www.w3.org/2000/svg">
<path d="M18.7501 16.875C18.7501 17.9106 17.9106 18.7501 16.875 18.7501H9.37505C4.19605 18.7501 0 14.5521 0 9.37505C0 4.19702 4.19799 0 9.37505 0H13.1243C16.2305 0 18.7501 2.5186 18.7501 5.62484C18.7501 8.73135 16.2318 11.2497 13.1253 11.2497H9.37554C8.33994 11.2497 7.50043 10.4102 7.50043 9.37457C7.50043 8.33898 8.33995 7.49946 9.37554 7.49946H13.1243C14.1596 7.49946 14.9989 6.66016 14.9989 5.62484C14.9989 4.58943 14.1597 3.75022 13.1243 3.75022H9.37505C6.26881 3.75022 3.74924 6.26784 3.74924 9.37505C3.74924 12.4813 6.26881 14.9999 9.37505 14.9999H16.875C17.9106 14.9999 18.7501 15.8394 18.7501 16.875Z" fill="white"/>
<path d="M24.3779 0C25.4132 0 26.2525 0.839297 26.2525 1.87462V16.8755C26.2525 17.9108 25.4132 18.7501 24.3779 18.7501C23.3425 18.7501 22.5032 17.9108 22.5032 16.8755V1.87462C22.5032 0.839297 23.3425 0 24.3779 0Z" fill="#BABCBE"/>
<path d="M55.8113 15.0028C56.8466 15.0028 57.6859 15.8421 57.6859 16.8774C57.6859 17.9128 56.8466 18.7521 55.8113 18.7521H45.4572C43.9866 18.7521 42.6462 18.1877 41.6438 17.263C40.8881 18.1732 39.7478 18.7521 38.4715 18.7521H31.8763C30.841 18.7521 30.0017 17.9128 30.0017 16.8774C30.0017 15.8421 30.841 15.0028 31.8764 15.0028H38.4715C38.5628 15.0028 38.6444 14.9708 38.7085 14.9183C38.7415 14.8901 38.7707 14.8561 38.794 14.8183C38.827 14.7629 38.8464 14.6978 38.8464 14.6279C38.8464 14.524 38.8037 14.4307 38.7377 14.3627L31.3276 6.95352C30.5954 6.22133 30.5953 5.03414 31.3276 4.30191C32.0598 3.56969 33.247 3.56971 33.9792 4.30196L44.1304 14.454C44.4703 14.793 44.9385 15.0028 45.4572 15.0028H55.8113Z" fill="#BABCBE"/>
<path d="M125.623 0H121.872C118.766 0 116.248 2.5186 116.248 5.62484V7.49907C116.248 9.57048 117.927 11.2497 119.999 11.2497H122.998C123.413 11.2497 123.748 11.5855 123.748 11.9998V13.1253C123.748 14.1607 122.907 14.9999 121.872 14.9999H114.373C113.338 14.9999 112.497 14.1607 112.497 13.1253V5.62484C112.497 4.58951 111.657 3.75022 110.622 3.75022C109.587 3.75022 108.748 4.58951 108.748 5.62484V13.1253C108.748 16.2315 111.265 18.7501 114.373 18.7501H121.872C124.98 18.7501 127.498 16.2315 127.498 13.1253V11.2501C127.498 9.17866 125.818 7.49946 123.747 7.49946H120.746C120.332 7.49946 119.997 7.16362 119.997 6.74934V5.62484C119.997 4.58943 120.836 3.75022 121.872 3.75022H125.623C126.658 3.75022 127.498 2.9107 127.498 1.87511C127.498 0.839515 126.658 0 125.623 0Z" fill="#BABCBE"/>
<path d="M135 1.87463C135 0.839299 134.161 0 133.125 0C132.09 0 131.251 0.839301 131.251 1.87463V16.8755C131.251 17.9108 132.09 18.7501 133.125 18.7501C134.161 18.7501 135 17.9108 135 16.8755V1.87463Z" fill="#BABCBE"/>
<path d="M103.124 18.7501C102.088 18.7501 101.249 17.9108 101.249 16.8755V1.87462C101.249 0.839298 102.088 0 103.124 0C104.159 0 104.998 0.839297 104.998 1.87462V16.8755C104.998 17.9108 104.159 18.7501 103.124 18.7501Z" fill="#BABCBE"/>
<path d="M47.3318 0C48.3672 0 49.2064 0.839209 49.2064 1.87559C49.2064 2.91101 48.3672 3.75022 47.3318 3.75022C46.2964 3.75022 45.4572 2.91101 45.4572 1.87559C45.4572 0.839209 46.2964 0 47.3318 0Z" fill="#BABCBE"/>
<path d="M71.358 1.87559C71.358 0.839209 70.5188 0 69.4834 0C68.446 0 67.6068 0.839209 67.6068 1.87559C67.6068 0.839209 66.7676 0 65.7322 0C64.6968 0 63.8576 0.839209 63.8576 1.87559C63.8576 2.34182 64.0285 2.76822 64.3102 3.09653C64.6541 3.4967 65.163 3.75022 65.7322 3.75022C66.7676 3.75022 67.6068 2.91101 67.6068 1.87559C67.6068 2.44866 67.8652 2.96249 68.2712 3.30633C68.3625 3.38306 68.4596 3.45105 68.5645 3.50933C68.683 3.57635 68.8093 3.63075 68.9414 3.67057C69.1124 3.72205 69.295 3.75022 69.4834 3.75022C70.5188 3.75022 71.358 2.91101 71.358 1.87559Z" fill="#BABCBE"/>
<path d="M55.2615 7.27606L62.4259 14.4394C62.6454 14.658 62.9038 14.8115 63.1777 14.8998C63.3642 14.9591 63.5584 14.9892 63.7527 14.9892V15.0038H65.6273C66.6627 15.0038 67.5019 14.1636 67.5019 13.1282V7.50403C67.5019 6.46833 68.3418 5.62872 69.3775 5.62872C70.4132 5.62872 71.2531 6.46832 71.2531 7.50402V13.1282C71.2531 13.4011 71.3114 13.6614 71.4163 13.8965C71.4416 13.9519 71.4688 14.0062 71.4998 14.0587C71.5562 14.1578 71.6203 14.251 71.6941 14.3375C72.0379 14.7454 72.5527 15.0038 73.1277 15.0038H76.8789C77.9124 15.0038 78.7536 14.1636 78.7536 13.1282V9.37797C78.7536 8.34264 79.5929 7.50335 80.6282 7.50335C81.6635 7.50335 82.5028 8.34264 82.5028 9.37796V13.1282C82.5028 13.5488 82.6427 13.9373 82.8758 14.25C83.2177 14.7075 83.7636 15.0038 84.3774 15.0038C84.9019 15.0038 85.3759 14.7881 85.7159 14.4404C86.0481 14.1024 86.2521 13.6391 86.2521 13.1282V9.37865C86.2521 8.34295 87.0919 7.50335 88.1276 7.50335C89.1633 7.50335 90.0032 8.34295 90.0032 9.37865V13.1282C90.0032 13.6711 90.2344 14.1607 90.6035 14.5036C90.6598 14.556 90.7201 14.6055 90.7822 14.6512C90.8424 14.6939 90.9046 14.7338 90.9706 14.7697C91.1183 14.8523 91.2795 14.9144 91.4485 14.9542C91.5865 14.9863 91.7302 15.0038 91.8779 15.0038C92.9133 15.0038 93.7525 14.1636 93.7525 13.1282V5.62843C93.7525 4.59273 94.5924 3.75313 95.6281 3.75313C96.6638 3.75313 97.5037 4.59273 97.5037 5.62843V13.1282C97.5037 16.2344 94.9841 18.753 91.8779 18.753C90.4364 18.753 89.1232 18.211 88.1286 17.3203C87.132 18.211 85.8188 18.753 84.3774 18.753C82.936 18.753 81.6228 18.211 80.6282 17.3203C79.6316 18.211 78.3184 18.753 76.877 18.753H73.1277C71.6863 18.753 70.3731 18.211 69.3766 17.3203C68.9472 17.705 68.4577 18.0245 67.9254 18.2635C67.2241 18.5782 66.4471 18.753 65.6273 18.753H63.7527V18.7385C62.3132 18.7385 60.8737 18.1897 59.7742 17.0911L52.6099 9.92773C52.2446 9.56154 51.7648 9.37797 51.285 9.37797H47.3318C46.2965 9.37797 45.4572 8.53867 45.4572 7.50335C45.4572 6.46802 46.2965 5.62872 47.3318 5.62872H51.285C51.8697 5.62872 52.4545 5.72003 53.0178 5.90166C53.8395 6.16586 54.6108 6.62431 55.2615 7.27606Z" fill="#BABCBE"/>
<path fill-rule="evenodd" clip-rule="evenodd" d="M58.658 28.9524C59.0806 29.18 59.5617 29.2937 60.1013 29.2937C60.4003 29.2937 60.7124 29.2385 61.0374 29.1279C61.369 29.0174 61.6453 28.8744 61.8663 28.6989C61.9768 28.6144 62.0288 28.5136 62.0223 28.3966C62.0158 28.2796 61.9573 28.1723 61.8468 28.0748C61.7623 28.0033 61.6615 27.9708 61.5445 27.9773C61.434 27.9773 61.33 28.013 61.2325 28.0845C61.1024 28.182 60.9302 28.2698 60.7156 28.3478C60.5076 28.4193 60.3028 28.4551 60.1013 28.4551C59.7307 28.4551 59.4024 28.3738 59.1164 28.2113C58.8303 28.0488 58.606 27.8277 58.4435 27.5482C58.3346 27.3609 58.2622 27.1561 58.2263 26.9338H61.9346C62.0646 26.9338 62.1719 26.8948 62.2564 26.8168C62.3409 26.7323 62.3832 26.6283 62.3832 26.5048C62.3832 25.9912 62.2856 25.5394 62.0906 25.1493C61.9021 24.7527 61.6258 24.4439 61.2617 24.2229C60.8977 23.9954 60.4621 23.8816 59.955 23.8816C59.4414 23.8816 58.9864 23.9986 58.5898 24.2327C58.1932 24.4602 57.8812 24.7787 57.6536 25.1883C57.4326 25.5914 57.3221 26.0595 57.3221 26.5925C57.3221 27.1191 57.4391 27.5872 57.6731 27.9968C57.9137 28.3998 58.242 28.7184 58.658 28.9524ZM58.2374 26.1537C58.2709 25.9687 58.3266 25.7965 58.4045 25.6369C58.541 25.3508 58.7393 25.1266 58.9994 24.964C59.2659 24.8015 59.5844 24.7202 59.955 24.7202C60.2801 24.7202 60.5564 24.795 60.7839 24.9445C61.0114 25.094 61.187 25.2988 61.3105 25.5589C61.3983 25.7391 61.4565 25.9374 61.4852 26.1537H58.2374Z" fill="#BABCBE"/>
<path d="M64.5782 26.9436C64.6757 27.0346 64.7959 27.0801 64.939 27.0801H67.1136C67.2566 27.0801 67.3736 27.0346 67.4646 26.9436C67.5556 26.8526 67.6012 26.7356 67.6012 26.5925C67.6012 26.443 67.5556 26.3227 67.4646 26.2317C67.3736 26.1407 67.2566 26.0952 67.1136 26.0952H64.939C64.7959 26.0952 64.6757 26.1407 64.5782 26.2317C64.4871 26.3227 64.4416 26.443 64.4416 26.5925C64.4416 26.7356 64.4871 26.8526 64.5782 26.9436Z" fill="#BABCBE"/>
<path fill-rule="evenodd" clip-rule="evenodd" d="M71.0616 28.9524C71.4842 29.18 71.9652 29.2937 72.5048 29.2937C72.8039 29.2937 73.1159 29.2385 73.441 29.1279C73.7725 29.0174 74.0488 28.8744 74.2699 28.6989C74.3804 28.6144 74.4324 28.5136 74.4259 28.3966C74.4194 28.2796 74.3609 28.1723 74.2504 28.0748C74.1658 28.0033 74.0651 27.9708 73.9481 27.9773C73.8375 27.9773 73.7335 28.013 73.636 28.0845C73.506 28.182 73.3337 28.2698 73.1192 28.3478C72.9111 28.4193 72.7064 28.4551 72.5048 28.4551C72.1343 28.4551 71.806 28.3738 71.5199 28.2113C71.2339 28.0488 71.0096 27.8277 70.8471 27.5482C70.7382 27.3609 70.6658 27.1561 70.6298 26.9338H74.3381C74.4681 26.9338 74.5754 26.8948 74.6599 26.8168C74.7444 26.7323 74.7867 26.6283 74.7867 26.5048C74.7867 25.9912 74.6892 25.5394 74.4941 25.1493C74.3056 24.7527 74.0293 24.4439 73.6653 24.2229C73.3012 23.9954 72.8656 23.8816 72.3586 23.8816C71.845 23.8816 71.3899 23.9986 70.9933 24.2327C70.5968 24.4602 70.2847 24.7787 70.0572 25.1883C69.8361 25.5914 69.7256 26.0595 69.7256 26.5925C69.7256 27.1191 69.8426 27.5872 70.0767 27.9968C70.3172 28.3998 70.6455 28.7184 71.0616 28.9524ZM70.641 26.1537C70.6744 25.9687 70.7301 25.7965 70.8081 25.6369C70.9446 25.3508 71.1429 25.1266 71.4029 24.964C71.6694 24.8015 71.988 24.7202 72.3586 24.7202C72.6836 24.7202 72.9599 24.795 73.1874 24.9445C73.415 25.094 73.5905 25.2988 73.714 25.5589C73.8018 25.7391 73.8601 25.9374 73.8887 26.1537H70.641Z" fill="#BABCBE"/>
<path d="M78.0446 29.0889C78.4347 29.2255 78.8573 29.2937 79.3123 29.2937C79.7739 29.2937 80.1575 29.2222 80.463 29.0792C80.7751 28.9362 81.0091 28.7444 81.1651 28.5038C81.3277 28.2633 81.4089 27.9935 81.4089 27.6945C81.4089 27.4344 81.3472 27.2069 81.2236 27.0119C81.1001 26.8103 80.8953 26.6348 80.6093 26.4853C80.3297 26.3357 79.9462 26.2122 79.4586 26.1147C79.1076 26.0432 78.841 25.9717 78.659 25.9002C78.477 25.8222 78.3534 25.7376 78.2884 25.6466C78.2299 25.5491 78.2007 25.4419 78.2007 25.3248C78.2007 25.1363 78.2982 24.9933 78.4932 24.8958C78.6947 24.7982 78.9385 24.7495 79.2246 24.7495C79.4716 24.7495 79.6894 24.7787 79.8779 24.8373C80.0665 24.8958 80.242 25.003 80.4045 25.1591C80.502 25.2501 80.6223 25.3086 80.7653 25.3346C80.9083 25.3606 81.0319 25.3378 81.1359 25.2663C81.2399 25.1883 81.2952 25.094 81.3017 24.9835C81.3082 24.8665 81.2659 24.756 81.1749 24.652C80.9799 24.4114 80.7166 24.2229 80.385 24.0864C80.0535 23.9499 79.6731 23.8816 79.2441 23.8816C78.9125 23.8816 78.594 23.9369 78.2884 24.0474C77.9829 24.1514 77.7326 24.3139 77.5375 24.535C77.3425 24.7495 77.245 25.0225 77.245 25.3541C77.245 25.7311 77.3913 26.0497 77.6838 26.3097C77.9829 26.5698 78.4607 26.7648 79.1173 26.8948C79.6244 26.9859 79.9722 27.1029 80.1607 27.2459C80.3558 27.3889 80.45 27.5579 80.4435 27.753C80.437 27.948 80.333 28.1073 80.1315 28.2308C79.9364 28.3543 79.6504 28.4161 79.2733 28.4161C78.9743 28.4161 78.7012 28.3641 78.4542 28.2601C78.2137 28.1495 78.0381 28.0325 77.9276 27.909C77.8366 27.8115 77.7261 27.7562 77.5961 27.7432C77.4725 27.7237 77.3458 27.766 77.2157 27.87C77.1052 27.9545 77.0402 28.065 77.0207 28.2015C77.0077 28.3316 77.05 28.4486 77.1475 28.5526C77.362 28.7671 77.6611 28.9459 78.0446 29.0889Z" fill="#BABCBE"/>
<path d="M85.046 29.0109C85.306 29.1735 85.5985 29.2547 85.9236 29.2547H86.0991C86.2682 29.2547 86.4047 29.2092 86.5087 29.1182C86.6192 29.0272 86.6745 28.9102 86.6745 28.7671C86.6745 28.6241 86.6322 28.5071 86.5477 28.4161C86.4697 28.3251 86.3722 28.2796 86.2551 28.2796H85.9236C85.7156 28.2796 85.54 28.1918 85.397 28.0163C85.254 27.8407 85.1825 27.623 85.1825 27.3629V24.9543H86.0114C86.1479 24.9543 86.2584 24.9153 86.3429 24.8373C86.4274 24.7592 86.4697 24.6617 86.4697 24.5447C86.4697 24.4147 86.4274 24.3107 86.3429 24.2327C86.2584 24.1546 86.1479 24.1156 86.0114 24.1156H85.1825V22.7114C85.1825 22.5684 85.137 22.4514 85.046 22.3604C84.9549 22.2693 84.8379 22.2238 84.6949 22.2238C84.5519 22.2238 84.4349 22.2693 84.3438 22.3604C84.2528 22.4514 84.2073 22.5684 84.2073 22.7114V24.1156H83.7588C83.6222 24.1156 83.5117 24.1546 83.4272 24.2327C83.3427 24.3107 83.3004 24.4147 83.3004 24.5447C83.3004 24.6617 83.3427 24.7592 83.4272 24.8373C83.5117 24.9153 83.6222 24.9543 83.7588 24.9543H84.2073V27.3629C84.2073 27.7205 84.2821 28.0423 84.4316 28.3283C84.5811 28.6144 84.7859 28.8419 85.046 29.0109Z" fill="#BABCBE"/>
<path fill-rule="evenodd" clip-rule="evenodd" d="M90.2764 28.9524C90.6989 29.18 91.18 29.2937 91.7196 29.2937C92.0187 29.2937 92.3307 29.2385 92.6558 29.1279C92.9873 29.0174 93.2636 28.8744 93.4846 28.6989C93.5952 28.6144 93.6472 28.5136 93.6407 28.3966C93.6342 28.2796 93.5757 28.1723 93.4651 28.0748C93.3806 28.0033 93.2799 27.9708 93.1628 27.9773C93.0523 27.9773 92.9483 28.013 92.8508 28.0845C92.7208 28.182 92.5485 28.2698 92.334 28.3478C92.1259 28.4193 91.9211 28.4551 91.7196 28.4551C91.349 28.4551 91.0207 28.3738 90.7347 28.2113C90.4487 28.0488 90.2244 27.8277 90.0618 27.5482C89.953 27.3609 89.8806 27.1561 89.8446 26.9338H93.5529C93.6829 26.9338 93.7902 26.8948 93.8747 26.8168C93.9592 26.7323 94.0015 26.6283 94.0015 26.5048C94.0015 25.9912 93.904 25.5394 93.7089 25.1493C93.5204 24.7527 93.2441 24.4439 92.8801 24.2229C92.516 23.9954 92.0804 23.8816 91.5733 23.8816C91.0598 23.8816 90.6047 23.9986 90.2081 24.2327C89.8116 24.4602 89.4995 24.7787 89.272 25.1883C89.0509 25.5914 88.9404 26.0595 88.9404 26.5925C88.9404 27.1191 89.0574 27.5872 89.2915 27.9968C89.532 28.3998 89.8603 28.7184 90.2764 28.9524ZM89.8558 26.1537C89.8892 25.9687 89.9449 25.7965 90.0228 25.6369C90.1594 25.3508 90.3576 25.1266 90.6177 24.964C90.8842 24.8015 91.2028 24.7202 91.5733 24.7202C91.8984 24.7202 92.1747 24.795 92.4022 24.9445C92.6298 25.094 92.8053 25.2988 92.9288 25.5589C93.0166 25.7391 93.0748 25.9374 93.1035 26.1537H89.8558Z" fill="#BABCBE"/>
<path d="M97.5422 27.287V28.7769C97.5422 28.9199 97.4967 29.0369 97.4057 29.1279C97.3212 29.2125 97.2074 29.2547 97.0644 29.2547C96.9214 29.2547 96.8043 29.2125 96.7133 29.1279C96.6288 29.0369 96.5866 28.9199 96.5866 28.7769V22.1166C96.5866 21.9735 96.6288 21.8598 96.7133 21.7753C96.8043 21.6842 96.9214 21.6387 97.0644 21.6387C97.2074 21.6387 97.3212 21.6842 97.4057 21.7753C97.4967 21.8598 97.5422 21.9735 97.5422 22.1166V26.0843L99.9118 23.9694C100.009 23.8784 100.117 23.8361 100.234 23.8426C100.357 23.8491 100.461 23.9011 100.546 23.9986C100.637 24.0961 100.679 24.2034 100.672 24.3204C100.666 24.4374 100.614 24.5415 100.516 24.6325L98.7267 26.2298L100.614 28.5526C100.698 28.6566 100.734 28.7704 100.721 28.8939C100.715 29.0109 100.656 29.1149 100.546 29.206C100.442 29.2905 100.325 29.3262 100.195 29.3132C100.071 29.3067 99.9671 29.2515 99.8826 29.1474L98.0276 26.8538L97.5422 27.287Z" fill="#BABCBE"/>
<path d="M104.45 28.7671C104.45 28.9102 104.404 29.0304 104.313 29.1279C104.222 29.219 104.102 29.2645 103.952 29.2645C103.809 29.2645 103.689 29.219 103.591 29.1279C103.5 29.0304 103.455 28.9102 103.455 28.7671V22.1361C103.455 21.9865 103.5 21.8663 103.591 21.7753C103.689 21.6842 103.809 21.6387 103.952 21.6387C104.102 21.6387 104.222 21.6842 104.313 21.7753C104.404 21.8663 104.45 21.9865 104.45 22.1361V24.5215C104.594 24.3791 104.76 24.2569 104.947 24.1546C105.291 23.9661 105.678 23.8718 106.107 23.8718C106.556 23.8718 106.956 23.9694 107.307 24.1644C107.664 24.3529 107.944 24.6325 108.145 25.003C108.353 25.3736 108.458 25.8287 108.458 26.3683V28.7671C108.458 28.9102 108.409 29.0304 108.311 29.1279C108.22 29.219 108.103 29.2645 107.96 29.2645C107.817 29.2645 107.697 29.219 107.599 29.1279C107.508 29.0304 107.463 28.9102 107.463 28.7671V26.3683C107.463 25.9977 107.395 25.6954 107.258 25.4614C107.122 25.2273 106.936 25.055 106.702 24.9445C106.475 24.8275 106.211 24.769 105.912 24.769C105.639 24.769 105.392 24.8243 105.171 24.9348C104.95 25.0453 104.775 25.1948 104.645 25.3833C104.515 25.5654 104.45 25.7767 104.45 26.0172V28.7671Z" fill="#BABCBE"/>
<path fill-rule="evenodd" clip-rule="evenodd" d="M120.547 28.9427C120.924 29.1767 121.35 29.2937 121.824 29.2937C122.299 29.2937 122.725 29.1767 123.102 28.9427C123.334 28.7944 123.536 28.6153 123.706 28.4053V28.7671C123.706 28.9102 123.752 29.0304 123.843 29.1279C123.94 29.219 124.061 29.2645 124.204 29.2645C124.347 29.2645 124.464 29.219 124.555 29.1279C124.652 29.0304 124.701 28.9102 124.701 28.7671V26.5925C124.701 26.079 124.581 25.6174 124.34 25.2078C124.106 24.7982 123.788 24.4764 123.385 24.2424C122.982 24.0019 122.527 23.8816 122.019 23.8816C121.512 23.8816 121.054 24.0019 120.644 24.2424C120.241 24.4764 119.92 24.7982 119.679 25.2078C119.445 25.6174 119.328 26.079 119.328 26.5925C119.328 27.1061 119.435 27.5677 119.65 27.9773C119.871 28.3803 120.17 28.7021 120.547 28.9427ZM122.907 28.182C122.647 28.3381 122.351 28.4161 122.019 28.4161C121.694 28.4161 121.399 28.3381 121.132 28.182C120.872 28.0195 120.664 27.8017 120.508 27.5287C120.358 27.2491 120.284 26.9371 120.284 26.5925C120.284 26.2415 120.358 25.9294 120.508 25.6564C120.664 25.3768 120.872 25.1591 121.132 25.003C121.399 24.8405 121.694 24.7592 122.019 24.7592C122.351 24.7592 122.647 24.8405 122.907 25.003C123.167 25.1591 123.372 25.3768 123.521 25.6564C123.671 25.9294 123.745 26.2415 123.745 26.5925C123.745 26.9371 123.671 27.2491 123.521 27.5287C123.372 27.8017 123.167 28.0195 122.907 28.182Z" fill="#BABCBE"/>
<path d="M134.139 29.1279C134.236 29.219 134.357 29.2645 134.5 29.2645C134.649 29.2645 134.769 29.219 134.86 29.1279C134.951 29.0304 134.997 28.9102 134.997 28.7671V25.9782C134.997 25.5296 134.916 25.1493 134.753 24.8373C134.597 24.5187 134.376 24.2782 134.09 24.1156C133.804 23.9531 133.476 23.8718 133.105 23.8718C132.682 23.8718 132.305 23.9629 131.974 24.1449C131.744 24.2733 131.551 24.4374 131.393 24.6371C131.249 24.416 131.065 24.2422 130.843 24.1156C130.557 23.9531 130.228 23.8718 129.858 23.8718C129.474 23.8718 129.133 23.9629 128.834 24.1449C128.709 24.2211 128.595 24.3099 128.492 24.4112C128.489 24.2693 128.444 24.1545 128.356 24.0669C128.265 23.9759 128.145 23.9304 127.995 23.9304C127.852 23.9304 127.732 23.9759 127.634 24.0669C127.543 24.1579 127.498 24.2782 127.498 24.4277V28.7671C127.498 28.9102 127.543 29.0304 127.634 29.1279C127.732 29.219 127.852 29.2645 127.995 29.2645C128.145 29.2645 128.265 29.219 128.356 29.1279C128.447 29.0304 128.493 28.9102 128.493 28.7671V26.0172C128.493 25.6531 128.603 25.3541 128.824 25.12C129.045 24.886 129.325 24.769 129.663 24.769C129.988 24.769 130.251 24.8698 130.453 25.0713C130.654 25.2663 130.755 25.5686 130.755 25.9782V28.7671C130.755 28.9102 130.8 29.0304 130.891 29.1279C130.989 29.219 131.109 29.2645 131.252 29.2645C131.402 29.2645 131.522 29.219 131.613 29.1279C131.704 29.0304 131.75 28.9102 131.75 28.7671V26.0172C131.75 25.6531 131.857 25.3541 132.071 25.12C132.292 24.886 132.572 24.769 132.91 24.769C133.235 24.769 133.498 24.8698 133.7 25.0713C133.901 25.2663 134.002 25.5686 134.002 25.9782V28.7671C134.002 28.9102 134.048 29.0304 134.139 29.1279Z" fill="#BABCBE"/>
<path fill-rule="evenodd" clip-rule="evenodd" d="M115.572 26.5828C115.572 26.6106 115.572 26.6381 115.571 26.6655L115.572 26.5828Z" fill="#BABCBE"/>
<path fill-rule="evenodd" clip-rule="evenodd" d="M113.846 29.2937C113.339 29.2937 112.881 29.1767 112.471 28.9427C112.068 28.7021 111.747 28.3771 111.506 27.9675C111.272 27.5579 111.155 27.0964 111.155 26.5828C111.155 26.0692 111.262 25.6109 111.477 25.2078C111.698 24.7982 111.997 24.4764 112.374 24.2424C112.751 24.0019 113.177 23.8816 113.651 23.8816C114.035 23.8816 114.389 23.9629 114.714 24.1254C115.039 24.2814 115.312 24.4959 115.533 24.769V22.1361C115.533 21.9865 115.579 21.8663 115.67 21.7753C115.767 21.6842 115.888 21.6387 116.031 21.6387C116.18 21.6387 116.301 21.6842 116.392 21.7753C116.483 21.8663 116.528 21.9865 116.528 22.1361V26.5828V28.7964C116.528 28.9459 116.483 29.0662 116.392 29.1572C116.294 29.2482 116.174 29.2937 116.031 29.2937C115.881 29.2937 115.761 29.2482 115.67 29.1572C115.579 29.0662 115.533 28.9459 115.533 28.7964L115.535 28.7171C115.434 28.7991 115.326 28.8743 115.212 28.9427C114.809 29.1767 114.353 29.2937 113.846 29.2937ZM114.734 28.182C114.474 28.3381 114.178 28.4161 113.846 28.4161C113.521 28.4161 113.226 28.3381 112.959 28.182C112.699 28.0195 112.491 27.7985 112.335 27.5189C112.185 27.2394 112.111 26.9273 112.111 26.5828C112.111 26.2317 112.185 25.9197 112.335 25.6466C112.491 25.3736 112.699 25.1591 112.959 25.003C113.226 24.8405 113.521 24.7592 113.846 24.7592C114.178 24.7592 114.474 24.8405 114.734 25.003C114.994 25.1591 115.199 25.3736 115.348 25.6466C115.498 25.9197 115.572 26.2317 115.572 26.5828C115.572 26.6106 115.572 26.6381 115.571 26.6655C115.56 26.9774 115.486 27.2619 115.348 27.5189C115.199 27.7985 114.994 28.0195 114.734 28.182Z" fill="#BABCBE"/>
</svg>
