<svg id="Layer_1" data-name="Layer 1" xmlns="http://www.w3.org/2000/svg" viewBox="0 0 32 32"><path d="M7.793,17.626a4.653,4.653,0,1,0,6.581,0A4.659,4.659,0,0,0,7.793,17.626Zm5.166,5.167a2.652,2.652,0,1,1,0-3.753A2.654,2.654,0,0,1,12.959,22.793Z" id="id_105"></path><path d="M24.707,7.293a20.351,20.351,0,0,0-14.485-6,1,1,0,0,0,0,2A18.485,18.485,0,0,1,28.707,21.777a1,1,0,0,0,2,0A20.35,20.35,0,0,0,24.707,7.293Z" id="id_106"></path><path d="M10.222,6.164a1,1,0,0,0,0,2A13.612,13.612,0,0,1,23.836,21.777a1,1,0,0,0,2,0A15.613,15.613,0,0,0,10.222,6.164Z" id="id_107"></path><path d="M10.222,11.035a1,1,0,1,0,0,2,8.742,8.742,0,0,1,8.742,8.742,1,1,0,0,0,2,0A10.743,10.743,0,0,0,10.222,11.035Z" id="id_108"></path></svg>